HIERARCHY
ROOT Hips
{
	OFFSET 0.000000 0.000000 0.000000
	CHANNELS 6 Xposition Yposition Zposition Zrotation Yrotation Xrotation 
	JOINT LHipJoint
	{
		OFFSET 0.000000 0.000000 0.000000
		CHANNELS 3 Zrotation Yrotation Xrotation
		JOINT LeftUpLeg
		{
			OFFSET 1.363060 -1.794630 0.839290
			CHANNELS 3 Zrotation Yrotation Xrotation
			JOINT LeftLeg
			{
				OFFSET 2.448110 -6.726130 0.000000
				CHANNELS 3 Zrotation Yrotation Xrotation
				JOINT LeftFoot
				{
					OFFSET 2.562200 -7.039590 0.000000
					CHANNELS 3 Zrotation Yrotation Xrotation
					JOINT LeftToeBase
					{
						OFFSET 0.157640 -0.433110 2.322550
						CHANNELS 3 Zrotation Yrotation Xrotation
						End Site
						{
							OFFSET 0.000000 0.000000 0.000000
						}
					}
				}
			}
		}
	}
	JOINT RHipJoint
	{
		OFFSET 0.000000 0.000000 0.000000
		CHANNELS 3 Zrotation Yrotation Xrotation
		JOINT RightUpLeg
		{
			OFFSET -1.305520 -1.794630 0.839290
			CHANNELS 3 Zrotation Yrotation Xrotation
			JOINT RightLeg
			{
				OFFSET -2.542530 -6.985550 0.000000
				CHANNELS 3 Zrotation Yrotation Xrotation
				JOINT RightFoot
				{
					OFFSET -2.568260 -7.056230 0.000000
					CHANNELS 3 Zrotation Yrotation Xrotation
					JOINT RightToeBase
					{
						OFFSET -0.164730 -0.452590 2.363150
						CHANNELS 3 Zrotation Yrotation Xrotation
						End Site
						{
							OFFSET 0.000000 0.000000 0.000000
						}
					}
				}
			}
		}
	}
	JOINT LowerBack
	{
		OFFSET 0.000000 0.000000 0.000000
		CHANNELS 3 Zrotation Yrotation Xrotation
		JOINT Spine
		{
			OFFSET 0.028270 2.035590 -0.193380
			CHANNELS 3 Zrotation Yrotation Xrotation
			JOINT Spine1
			{
				OFFSET 0.056720 2.048850 -0.042750
				CHANNELS 3 Zrotation Yrotation Xrotation
				JOINT Neck
				{
					OFFSET 0.000000 0.000000 0.000000
					CHANNELS 3 Zrotation Yrotation Xrotation
					JOINT Neck1
					{
						OFFSET -0.054170 1.746240 0.172020
						CHANNELS 3 Zrotation Yrotation Xrotation
						JOINT Head
						{
							OFFSET 0.104070 1.761360 -0.123970
							CHANNELS 3 Zrotation Yrotation Xrotation
							End Site
							{
								OFFSET 0.000000 0.000000 0.000000
							}
						}
					}
				}
				JOINT LeftShoulder
				{
					OFFSET 0.000000 0.000000 0.000000
					CHANNELS 3 Zrotation Yrotation Xrotation
					JOINT LeftArm
					{
						OFFSET 3.362410 1.200890 -0.311210
						CHANNELS 3 Zrotation Yrotation Xrotation
						JOINT LeftForeArm
						{
							OFFSET 4.983000 -0.000000 -0.000000
							CHANNELS 3 Zrotation Yrotation Xrotation
							JOINT LeftHand
							{
								OFFSET 3.483560 -0.000000 -0.000000
								CHANNELS 3 Zrotation Yrotation Xrotation
								JOINT LeftFingerBase
								{
									OFFSET 0.000000 0.000000 0.000000
									CHANNELS 3 Zrotation Yrotation Xrotation
									JOINT LeftHandIndex1
									{
										OFFSET 0.715260 -0.000000 -0.000000
										CHANNELS 3 Zrotation Yrotation Xrotation
										End Site
										{
											OFFSET 0.000000 0.000000 0.000000
										}
									}
								}
								JOINT LThumb
								{
									OFFSET 0.000000 0.000000 0.000000
									CHANNELS 3 Zrotation Yrotation Xrotation
									End Site
									{
										OFFSET 0.000000 0.000000 0.000000
									}
								}
							}
						}
					}
				}
				JOINT RightShoulder
				{
					OFFSET 0.000000 0.000000 0.000000
					CHANNELS 3 Zrotation Yrotation Xrotation
					JOINT RightArm
					{
						OFFSET -3.136600 1.374050 -0.404650
						CHANNELS 3 Zrotation Yrotation Xrotation
						JOINT RightForeArm
						{
							OFFSET -5.241900 -0.000000 -0.000000
							CHANNELS 3 Zrotation Yrotation Xrotation
							JOINT RightHand
							{
								OFFSET -3.444170 -0.000000 -0.000000
								CHANNELS 3 Zrotation Yrotation Xrotation
								JOINT RightFingerBase
								{
									OFFSET 0.000000 0.000000 0.000000
									CHANNELS 3 Zrotation Yrotation Xrotation
									JOINT RightHandIndex1
									{
										OFFSET -0.622530 -0.000000 -0.000000
										CHANNELS 3 Zrotation Yrotation Xrotation
										End Site
										{
											OFFSET 0.000000 0.000000 0.000000
										}
									}
								}
								JOINT RThumb
								{
									OFFSET 0.000000 0.000000 0.000000
									CHANNELS 3 Zrotation Yrotation Xrotation
									End Site
									{
										OFFSET 0.000000 0.000000 0.000000
									}
								}
							}
						}
					}
				}
			}
		}
	}
}
MOTION
Frames: 11
Frame Time: 0.008333
9.805046 17.850623 34.400411 179.682656 -1.470394 -159.784771 8.578523 1.814062 -1.695725 -27.508882 -15.668546 -13.421327 -1.102369 4.369200 10.753105 0.225748 -4.957545 -15.420055 2.651000 -10.107300 -29.325000 -12.871844 -3.186723 -1.904754 32.243022 15.695117 -11.592792 1.226207 -4.104051 10.883134 -2.139562 0.855309 -27.330749 -0.361500 3.862300 -10.689700 -3.548219 -0.677471 -23.007016 1.357183 -1.007035 -4.825078 -0.170835 -1.429418 13.776912 -11.572431 -0.027797 -1.830402 11.579322 -3.029810 18.004230 2.534800 -0.855600 3.221500 16.974875 -2.458707 0.335798 -107.205818 -9.133811 29.458573 19.319556 -24.298307 -5.735560 -1.423470 0.097952 0.497376 19.398967 -9.826615 -3.718000 -7.125000 0.000000 0.000000 -4.389700 19.484200 2.682000 -11.864437 0.502130 -0.105171 98.724645 5.325750 21.061983 -18.554963 30.292223 -6.525522 0.565818 4.051656 -2.222192 -12.824820 -52.719966 11.372600 7.125000 0.000000 0.000000 81.423300 -76.897400 -67.899700 
9.803729 17.850623 34.409410 179.752046 -1.489555 -159.691495 8.581113 1.781504 -1.698271 -27.359590 -15.934978 -13.521454 -1.120221 4.398159 10.788170 0.289461 -4.665175 -15.728874 2.876400 -10.492200 -30.585600 -12.887101 -3.158792 -1.875533 32.276391 15.942386 -11.774741 1.229818 -4.176890 10.999478 -2.146642 0.739940 -27.467218 -0.359500 3.851900 -10.660400 -3.441919 -0.675834 -23.021277 1.380167 -1.065803 -4.865121 -0.174231 -1.448642 13.634201 -11.608351 -0.005089 -1.772168 11.520242 -2.995406 18.026037 2.526300 -0.843100 3.221200 17.029596 -2.442344 0.324547 -107.320637 -8.981377 29.645661 19.614856 -24.707284 -5.934339 -1.428041 0.124905 0.503285 19.509026 -10.284291 -3.920700 -7.125000 0.000000 0.000000 -4.317800 18.964600 2.687800 -11.908900 0.505236 -0.107177 98.753260 5.252564 22.479345 -19.005147 30.918539 -6.883886 0.737308 4.264918 -5.268530 -20.751186 -54.710034 18.895000 7.125000 0.000000 0.000000 94.461400 -79.549500 -83.941200 
9.805814 17.847989 34.413800 179.785216 -1.460001 -159.625329 8.584318 1.771823 -1.705456 -27.284225 -15.897328 -13.654160 -1.122468 4.421360 10.826747 0.298942 -4.602941 -15.758517 2.950700 -10.614800 -30.991700 -12.893824 -3.147843 -1.862448 32.291537 16.016225 -11.905618 1.229437 -4.207837 11.037324 -2.135509 0.744676 -27.424930 -0.348600 3.793600 -10.496700 -3.429301 -0.647059 -23.075431 1.377171 -1.043085 -4.879137 -0.153211 -1.439216 13.593201 -11.556303 -0.038966 -1.788873 11.460856 -3.022303 18.054477 2.491900 -0.854500 3.238100 17.073358 -2.430989 0.314733 -107.345485 -8.912478 29.951896 19.884864 -25.068958 -6.113045 -1.422960 0.076800 0.466264 19.543428 -10.009522 -3.805900 -7.125000 0.000000 0.000000 -4.290400 19.304200 2.638200 -11.926991 0.514949 -0.116261 98.731878 5.259448 22.646718 -19.173718 31.080550 -6.948744 0.672409 4.166403 -5.255363 -18.886956 -53.517405 16.969800 7.125000 0.000000 0.000000 86.629700 -79.158600 -75.547700 
9.808887 17.843709 34.418080 179.807832 -1.403648 -159.507531 8.594754 1.755367 -1.712211 -27.219726 -15.932305 -13.860136 -1.120062 4.482385 10.944391 0.305872 -4.571072 -15.813320 3.018700 -10.725300 -31.359000 -12.908000 -3.140188 -1.856440 32.288028 16.020870 -12.109243 1.226235 -4.242822 11.075322 -2.056033 0.651815 -26.980555 -0.441500 4.263500 -11.819100 -3.424973 -0.604941 -23.217743 1.363940 -0.995770 -4.881794 -0.154792 -1.421940 13.628437 -11.510410 -0.079905 -1.830422 11.414991 -3.056587 18.079553 2.464400 -0.868800 3.255500 17.106436 -2.424694 0.308800 -107.342514 -8.926032 30.154295 20.089802 -25.353679 -6.259314 -1.397754 0.097294 0.495100 19.332273 -10.332350 -3.886500 -7.125000 0.000000 0.000000 -4.465100 18.957600 2.780800 -11.944961 0.520875 -0.124086 98.754105 5.307288 22.736429 -19.327988 31.229833 -7.009946 0.607968 4.076421 -5.309108 -17.266535 -52.387602 15.308900 7.125000 0.000000 0.000000 79.970000 -78.623400 -68.352300 
9.811850 17.840746 34.426860 179.732456 -1.398357 -159.360674 8.617226 1.730467 -1.704733 -27.247579 -16.235712 -14.073086 -1.118102 4.579618 11.129621 0.330038 -4.517376 -16.039127 3.011700 -10.714000 -31.321300 -12.954474 -3.135296 -1.857842 32.195706 16.016599 -12.369955 1.218198 -4.295948 11.157193 -1.776264 -0.005833 -25.347998 -0.832300 5.819900 -16.262800 -3.518972 -0.625381 -23.307118 1.361154 -1.005923 -4.900782 -0.150961 -1.441198 13.607121 -11.501643 -0.100225 -1.835468 11.377314 -3.072086 18.094637 2.448000 -0.876600 3.263000 17.071912 -2.475588 0.308292 -107.181050 -9.430059 30.650119 19.731116 -24.845172 -6.017137 -1.435430 0.201267 0.166810 19.541564 -11.126367 -4.274600 -7.125000 0.000000 0.000000 -4.313000 17.980900 2.778900 -11.941117 0.561229 -0.131597 98.746347 5.326407 22.869253 -19.490889 31.385195 -7.076913 0.540030 3.991680 -5.444943 -15.779797 -51.249624 13.796000 7.125000 0.000000 0.000000 74.069200 -77.961200 -61.916300 
9.816789 17.840636 34.440468 179.741131 -1.449507 -159.225887 8.649636 1.705522 -1.698167 -27.136409 -16.598575 -14.262421 -1.123144 4.659605 11.272622 0.366348 -4.347446 -16.242540 2.900900 -10.532900 -30.720200 -13.053062 -3.122523 -1.839444 32.272912 16.270218 -12.592650 1.214527 -4.384504 11.306144 -1.359861 -1.357469 -22.725457 -1.620500 8.026400 -22.794400 -3.556113 -0.646740 -23.278665 1.387406 -1.054107 -4.949607 -0.169110 -1.484045 13.457080 -11.477855 -0.123389 -1.809094 11.345581 -3.099814 18.104023 2.429800 -0.892100 3.268600 16.935331 -2.618242 0.317477 -106.712719 -10.714462 32.000423 18.464272 -22.992721 -5.177369 -1.581610 0.327885 -1.028415 20.442515 -11.617188 -4.759900 -7.125000 0.000000 0.000000 -3.606200 17.205400 2.382900 -11.895880 0.661492 -0.141122 98.727727 5.269900 22.957083 -19.629774 31.508010 -7.129650 0.473350 3.909150 -5.564651 -14.370266 -50.053075 12.371200 7.125000 0.000000 0.000000 68.689300 -77.168600 -55.985500 
9.820630 17.841075 34.452431 179.834384 -1.508890 -159.083243 8.668294 1.664532 -1.708103 -26.897466 -16.916467 -14.503798 -1.125395 4.751348 11.444063 0.394177 -4.155621 -16.334250 2.828600 -10.412300 -30.322500 -13.076269 -3.086014 -1.811414 32.351922 16.558773 -12.813400 1.223879 -4.464139 11.418614 -1.348252 -1.619681 -22.786038 -1.669400 8.140500 -23.141700 -3.478664 -0.610405 -23.333765 1.385112 -1.043183 -4.966615 -0.194376 -1.475210 13.407845 -11.408504 -0.162994 -1.795614 11.302294 -3.146640 18.109816 2.398100 -0.914500 3.270300 16.958473 -2.614960 0.311819 -106.659718 -10.690309 32.364904 18.580678 -23.156421 -5.252813 -1.583201 0.299234 -1.166954 20.475611 -11.477387 -4.703200 -7.125000 0.000000 0.000000 -3.575900 17.378400 2.349200 -11.901809 0.667870 -0.151104 98.780726 5.273348 22.908953 -19.667321 31.498878 -7.103724 0.367644 3.698332 -5.478400 -11.590625 -46.928816 9.554600 7.125000 0.000000 0.000000 57.545300 -74.906000 -43.610800 
9.823154 17.839429 34.461211 179.901685 -1.555920 -158.938875 8.682432 1.627952 -1.716013 -26.709019 -17.184362 -14.767560 -1.123156 4.853176 11.639902 0.413252 -4.049248 -16.442613 2.811400 -10.383300 -30.227100 -13.089609 -3.061893 -1.799369 32.386726 16.666010 -13.060570 1.224164 -4.529288 11.509720 -1.341612 -1.647826 -22.788423 -1.654000 8.104700 -23.032500 -3.382778 -0.606496 -23.471743 1.383854 -1.066086 -4.959678 -0.256168 -1.484920 13.495747 -11.388355 -0.195036 -1.870156 11.247990 -3.157700 18.135687 2.379400 -0.918100 3.292300 16.970579 -2.606811 0.310386 -106.605175 -10.747227 32.475680 18.662527 -23.275470 -5.306308 -1.576008 0.308868 -1.158565 20.427922 -11.625106 -4.751700 -7.125000 0.000000 0.000000 -3.620400 17.216000 2.391400 -11.906462 0.672373 -0.152908 98.796711 5.384473 22.947612 -19.622054 31.441661 -7.069898 0.378807 3.619048 -5.458758 -11.406126 -45.613576 9.224200 7.125000 0.000000 0.000000 53.189000 -74.163600 -39.182300 
9.822057 17.835368 34.466369 179.932218 -1.587010 -158.825519 8.689031 1.601338 -1.715120 -26.609597 -17.413578 -14.928382 -1.123855 4.917184 11.758086 0.432298 -3.968044 -16.571225 2.711300 -10.212400 -29.667200 -13.093837 -3.053974 -1.794433 32.386661 16.631647 -13.282201 1.220879 -4.575109 11.574854 -1.337264 -1.593890 -22.765051 -1.596800 7.970200 -22.623700 -3.318451 -0.598235 -23.589072 1.392801 -1.089921 -4.974281 -0.268345 -1.492581 13.496888 -11.381186 -0.191169 -1.849764 11.196134 -3.144191 18.150479 2.360700 -0.912700 3.289500 16.982717 -2.592055 0.309089 -106.611346 -10.649731 32.652960 18.746817 -23.405533 -5.368049 -1.571309 0.324824 -1.198870 20.376135 -11.871294 -4.840700 -7.125000 0.000000 0.000000 -3.670300 16.941300 2.446600 -11.904852 0.668728 -0.153449 98.747010 5.396634 22.970850 -19.574598 31.386111 -7.039027 0.361243 3.602395 -5.502833 -11.099878 -45.341643 8.938300 7.125000 0.000000 0.000000 52.587200 -73.894600 -38.419500 
9.820850 17.830978 34.469661 179.895083 -1.556650 -158.747771 8.693694 1.591090 -1.714038 -26.658804 -17.456487 -15.038288 -1.124063 4.948337 11.810064 0.438665 -3.889739 -16.561834 2.702400 -10.196900 -29.616900 -13.090324 -3.053880 -1.793064 32.315337 16.556094 -13.434078 1.217659 -4.596774 11.603400 -1.339174 -1.525225 -22.773136 -1.610500 8.002800 -22.722500 -3.350632 -0.582910 -23.684880 1.393542 -1.074874 -4.992901 -0.239046 -1.487488 13.465990 -11.362831 -0.182940 -1.789096 11.151526 -3.137852 18.162853 2.337300 -0.910900 3.277300 16.988418 -2.576838 0.308241 -106.646146 -10.503598 32.907520 18.790740 -23.477604 -5.404864 -1.578581 0.331178 -1.294564 20.418017 -12.020576 -4.913900 -7.125000 0.000000 0.000000 -3.642900 16.769300 2.441900 -11.898985 0.660100 -0.151653 98.704351 5.315436 22.902478 -19.529267 31.337688 -7.013442 0.342122 3.630211 -5.458903 -10.873938 -45.798754 8.814500 7.125000 0.000000 0.000000 54.271400 -74.057300 -39.976900 
9.821398 17.828125 34.475368 179.834093 -1.528745 -158.632671 8.702955 1.575235 -1.721835 -26.709598 -17.459097 -15.224972 -1.122998 4.987122 11.868527 0.437797 -3.835297 -16.511543 2.776700 -10.324400 -30.033800 -13.094896 -3.037345 -1.779774 32.174672 16.657731 -13.609980 1.219211 -4.623797 11.621801 -1.334535 -1.544441 -22.774677 -1.633300 8.056500 -22.885700 -3.409559 -0.594785 -23.795033 1.393483 -1.078112 -5.002237 -0.220753 -1.495909 13.482016 -11.356003 -0.188018 -1.781811 11.111768 -3.136097 18.176307 2.319200 -0.910100 3.277400 16.984495 -2.569719 0.307514 -106.685367 -10.465397 32.976251 18.777051 -23.457937 -5.396945 -1.586328 0.321259 -1.373683 20.471912 -11.953341 -4.899400 -7.125000 0.000000 0.000000 -3.597300 16.843900 2.405300 -11.894364 0.656820 -0.150291 98.669216 5.260683 22.934378 -19.524614 31.338376 -7.012324 0.324605 3.668879 -5.394766 -10.707071 -46.466204 8.762400 7.125000 0.000000 0.000000 56.642000 -74.334800 -42.253500 
